# xmcd
#
# Track frame offsets:
#        150
#        16672
#        34070
#        54090
#        72088
#        88891
#        113425
#        133539
#        155561
#        177297
#        196670
#        216235
#        237013
#        256823
#        274100
#        292078
#        316866
#
# Disc length: 4603 seconds
#
# Revision: 1
# Processed by: cddbd v1.5.1PL0 Copyright (c) Steve Scherf et al.
# Submitted via: ExactAudioCopy v0.95a4
#
DISCID=e011f911
DTITLE=JAM Project - BEST Project -JAM Project Best Collection-
DYEAR=2002
DGENRE=Soul
TTITLE0=CRUSH GEAR FIGHT!
TTITLE1=Hagane no kyuuseisyu
TTITLE2=LADY FIGHTER !
TTITLE3=STORM
TTITLE4=FIRE WARS
TTITLE5=In my Heart
TTITLE6=SOULTAKER
TTITLE7=Unmei no ito
TTITLE8=TORNADO
TTITLE9=Danger Zone
TTITLE10=CRAZY REVOLUTION
TTITLE11=RISING
TTITLE12=Aidayone!! -Gia wo tsunagou-
TTITLE13=Shippuu ni nare
TTITLE14=Over the Top!
TTITLE15=POWER
TTITLE16=KI･ZU･NA
EXTD=
EXTT0=
EXTT1=
EXTT2=
EXTT3=
EXTT4=
EXTT5=
EXTT6=
EXTT7=
EXTT8=
EXTT9=
EXTT10=
EXTT11=
EXTT12=
EXTT13=
EXTT14=
EXTT15=
EXTT16=
PLAYORDER=
